<?xml version="1.0" standalone="no"?>
<!DOCTYPE svg PUBLIC "-//W3C//DTD SVG 20010904//EN"
 "http://www.w3.org/TR/2001/REC-SVG-20010904/DTD/svg10.dtd">
<svg version="1.0" xmlns="http://www.w3.org/2000/svg"
 width="272.000000pt" height="310.000000pt" viewBox="0 0 272.000000 310.000000"
 preserveAspectRatio="xMidYMid meet">

<g transform="translate(0.000000,310.000000) scale(0.100000,-0.100000)"
fill="#890199" stroke="none">
<path d="M165 2420 c-16 -6 -41 -19 -53 -30 l-24 -20 -3 -680 c-2 -374 -1
-680 3 -680 12 0 13 -52 1 -66 -9 -10 -9 -14 0 -14 6 0 11 -13 11 -29 0 -22 8
-34 33 -50 30 -18 60 -21 278 -31 134 -5 321 -15 414 -21 94 -5 186 -9 205 -8
19 1 42 -1 50 -4 15 -5 1166 -65 1330 -68 143 -3 163 -1 209 28 l43 28 -5 62
c-2 35 0 60 4 57 5 -3 9 2 9 10 0 9 -7 16 -15 16 -10 0 -14 -10 -13 -33 1 -38
-9 -60 -23 -51 -9 5 -3 1422 6 1452 3 6 9 12 14 12 7 0 11 -108 13 -299 2
-165 0 -297 -4 -295 -3 2 -7 -169 -7 -381 -1 -339 1 -384 14 -379 13 5 15 42
12 270 -1 145 1 264 5 264 11 0 9 668 -3 675 -6 4 -6 11 -1 18 5 7 10 53 11
103 l2 91 -53 26 c-45 22 -90 32 -121 28 -4 -1 -3 -11 4 -23 l11 -21 -113 6
c-63 4 -177 8 -254 9 -77 1 -108 4 -68 5 49 3 73 8 76 18 5 11 -3 12 -36 9
-66 -8 -233 -8 -1112 -1 -541 5 -830 3 -850 -3z m1800 -23 c22 -2 -32 -4 -120
-5 -88 -1 -165 2 -172 6 -10 6 199 6 292 -1z m-528 -3 c-3 -3 -12 -4 -19 -1
-8 3 -5 6 6 6 11 1 17 -2 13 -5z m-1308 -326 c-1 -191 -4 -297 -9 -273 -5 22
-7 146 -5 275 3 129 5 252 5 273 0 20 2 37 5 37 3 0 4 -141 4 -312z m115 7 c0
-154 -1 -484 -2 -733 l-2 -453 -27 3 -28 3 -3 717 c-2 651 -1 718 14 733 9 9
24 15 33 13 14 -3 16 -32 15 -283z m2121 183 c-9 -65 -13 -70 -56 -66 -30 3
-34 6 -30 28 4 26 7 56 10 78 1 7 17 12 42 12 l41 0 -7 -52z m-1239 -3 c3 -13
4 -34 2 -46 -3 -21 -8 -24 -40 -21 -23 2 -38 -1 -38 -7 0 -7 -40 -11 -115 -11
-102 0 -115 2 -116 18 -1 15 -2 15 -6 1 -2 -10 -11 -15 -21 -12 -14 3 -16 13
-13 49 2 35 6 42 16 34 9 -7 16 -6 25 5 11 13 38 15 157 14 141 -1 143 -1 149
-24z m1301 -31 c-1 -26 -5 -31 -24 -31 -17 0 -21 3 -14 15 5 8 6 23 4 33 -4
13 0 18 15 16 16 -1 20 -8 19 -33z m-627 0 c36 -10 69 -21 75 -26 14 -12 -7
-10 -55 7 -23 8 -50 15 -59 15 -9 -1 11 -10 44 -21 33 -11 64 -24 68 -28 4 -5
-1 -24 -13 -43 l-20 -35 64 -42 c130 -84 228 -227 271 -393 22 -90 24 -93 52
-94 46 -2 50 -6 13 -13 -33 -6 -35 -9 -38 -48 l-3 -43 40 0 c32 0 39 -3 35
-15 -4 -10 -20 -15 -45 -15 -34 0 -39 -3 -39 -23 0 -22 -22 -115 -35 -150 -6
-13 1 -21 31 -33 22 -9 41 -18 42 -19 9 -8 -64 -128 -111 -184 -197 -234 -518
-298 -792 -158 -102 52 -234 180 -290 280 -139 251 -129 568 26 794 16 23 29
46 29 51 0 6 7 13 16 16 13 5 14 9 5 20 -15 18 -10 76 6 76 7 0 17 -9 23 -20
6 -11 8 -20 4 -20 -4 0 -5 -2 -2 -5 3 -3 39 18 80 48 120 86 240 126 376 127
36 0 62 4 62 10 0 13 54 7 140 -16z m160 -66 c0 -11 -2 -10 -38 8 -42 20 -40
25 3 11 19 -6 35 -14 35 -19z m597 0 c-3 -8 -6 -5 -6 6 -1 11 2 17 5 13 3 -3
4 -12 1 -19z m-429 -5 c-5 -25 -28 -28 -28 -4 0 12 6 21 16 21 9 0 14 -7 12
-17z m52 3 c0 -20 -12 -27 -27 -15 -18 16 -16 24 7 26 11 1 20 -4 20 -11z m43
-3 c-4 -11 -8 -13 -11 -5 -2 7 -8 10 -13 6 -5 -3 -9 0 -9 5 0 6 9 11 20 11 14
0 18 -5 13 -17z m37 2 c4 3 11 -2 14 -11 5 -12 2 -15 -10 -10 -8 3 -20 6 -25
6 -4 0 -5 8 -2 17 4 11 8 13 11 5 2 -7 7 -10 12 -7z m160 0 c0 -5 5 -3 10 5 8
13 10 12 10 -2 0 -20 1 -20 -62 -23 -36 -1 -48 2 -48 12 0 8 -5 11 -10 8 -6
-4 -8 -11 -5 -16 4 -5 1 -9 -4 -9 -13 0 -13 3 -5 23 6 16 114 19 114 2z m-505
-5 c3 -6 -1 -7 -9 -4 -18 7 -21 14 -7 14 6 0 13 -4 16 -10z m134 -52 c13 -10
21 -18 17 -18 -9 0 -96 59 -96 66 0 5 42 -21 79 -48z m-986 -41 c-3 -13 2 -31
10 -39 18 -17 8 -41 -12 -29 -8 5 -10 14 -6 21 5 8 4 11 -3 7 -9 -7 -8 12 4
51 6 21 11 13 7 -11z m-683 -22 c10 -12 10 -21 2 -40 -14 -30 -47 -33 -62 -5
-23 42 30 81 60 45z m170 -11 c0 -3 -9 -2 -20 1 -16 5 -20 2 -20 -14 0 -12 4
-21 10 -21 5 0 7 7 4 15 -5 11 -2 13 10 9 20 -8 20 -18 1 -34 -30 -25 -62 29
-33 58 10 10 48 0 48 -14z m-71 -15 c6 -18 11 -33 11 -34 0 -1 -13 -2 -30 -1
-33 1 -34 3 -20 40 13 35 26 33 39 -5z m117 24 c-15 -4 -16 -7 -5 -15 11 -7
11 -11 2 -15 -7 -2 -13 -11 -13 -19 0 -8 -4 -14 -10 -14 -5 0 -10 16 -10 35 0
32 3 35 28 34 19 -1 21 -3 8 -6z m61 -26 c10 -33 10 -33 -23 -33 -30 0 -31 2
-23 24 20 53 32 55 46 9z m68 22 c7 -11 -40 -60 -49 -51 -8 8 -7 47 1 55 10
11 41 8 48 -4z m36 -1 c0 -10 2 -10 6 0 10 24 23 11 23 -23 0 -19 -4 -35 -10
-35 -5 0 -10 7 -10 16 0 8 -5 12 -10 9 -6 -4 -8 -11 -5 -16 4 -5 1 -9 -4 -9
-6 0 -11 16 -11 35 0 32 19 52 21 23z m208 -6 c14 -25 1 -53 -23 -50 -15 2
-22 11 -24 31 -4 33 -22 26 -22 -9 0 -13 -4 -24 -10 -24 -5 0 -10 11 -10 25 0
33 -16 32 -24 -1 -5 -19 -12 -25 -29 -22 -22 3 -33 28 -23 53 7 20 153 18 165
-3z m1298 -374 c-3 -8 -6 -5 -6 6 -1 11 2 17 5 13 3 -3 4 -12 1 -19z m10 -60
c-3 -7 -5 -2 -5 12 0 14 2 19 5 13 2 -7 2 -19 0 -25z m-2180 -475 c-1 -43 -3
-8 -3 77 0 85 2 120 3 78 2 -43 2 -113 0 -155z m260 -59 c4 -10 -1 -22 -11
-30 -16 -12 -16 -13 1 -17 14 -4 14 -5 -4 -6 -26 -1 -30 11 -8 29 16 14 10 34
-7 24 -7 -4 -8 -2 -4 4 10 17 26 15 33 -4z m43 -25 c0 -19 -4 -28 -11 -24 -6
4 -8 13 -5 21 3 8 1 14 -5 14 -6 0 -7 5 -4 10 12 20 25 9 25 -21z m60 14 c1
-17 1 -17 11 0 15 26 29 20 29 -13 0 -23 -4 -30 -20 -30 -11 0 -20 6 -21 13 0
10 -2 10 -6 0 -9 -24 -23 -13 -23 17 0 20 5 30 15 30 8 0 15 -8 15 -17z m78
10 c-10 -2 -18 -9 -18 -14 0 -5 8 -10 18 -10 16 -1 16 -2 0 -6 -10 -2 -18 -8
-18 -13 0 -5 8 -11 18 -13 13 -4 11 -5 -5 -6 -20 -1 -23 4 -23 34 0 30 3 35
23 34 16 -1 18 -2 5 -6z m72 -4 c12 -8 11 -9 -5 -7 -14 2 -21 -3 -23 -19 -2
-13 1 -23 7 -23 16 0 22 18 9 23 -8 3 -5 6 5 6 12 1 17 -5 15 -16 -4 -23 -38
-23 -51 -1 -8 12 -7 21 2 32 16 19 21 19 41 5z m64 -21 c8 -33 8 -33 -19 -33
-27 0 -27 0 -19 33 4 12 12 22 19 22 7 0 15 -10 19 -22z m86 11 c0 -8 5 -8 15
1 13 11 15 8 15 -19 0 -17 -4 -31 -10 -31 -5 0 -10 7 -10 15 0 16 -29 10 -42
-9 -4 -6 -8 4 -8 22 0 25 4 32 20 32 11 0 20 -5 20 -11z m75 1 c8 6 11 -1 11
-25 0 -24 -3 -31 -11 -25 -7 6 -15 6 -21 0 -7 -7 -10 2 -10 25 0 23 3 32 10
25 6 -6 14 -6 21 0z m61 -8 c-15 -3 -16 -6 -5 -13 10 -6 10 -9 2 -9 -19 0 -16
-18 5 -23 10 -3 6 -5 -10 -6 -24 -1 -28 3 -28 27 0 36 6 41 33 34 20 -6 20 -7
3 -10z m46 -22 c3 -20 0 -30 -9 -30 -8 0 -13 12 -13 30 0 17 4 30 9 30 5 0 11
-13 13 -30z m78 20 c0 -5 -8 -7 -17 -3 -14 4 -13 1 5 -16 23 -23 22 -41 -3
-41 -8 0 -17 4 -20 10 -3 6 1 7 9 4 9 -3 16 -2 16 4 0 5 -7 12 -15 16 -22 8
-18 36 5 36 11 0 20 -4 20 -10z"/>
<path d="M2310 2275 c0 -8 7 -15 15 -15 8 0 15 7 15 15 0 8 -7 15 -15 15 -8 0
-15 -7 -15 -15z"/>
<path d="M2300 2225 c0 -8 7 -15 15 -15 8 0 15 7 15 15 0 8 -7 15 -15 15 -8 0
-15 -7 -15 -15z"/>
<path d="M795 2230 c-3 -5 -1 -10 4 -10 6 0 11 5 11 10 0 6 -2 10 -4 10 -3 0
-8 -4 -11 -10z"/>
<path d="M1703 2223 c9 -2 23 -2 30 0 6 3 -1 5 -18 5 -16 0 -22 -2 -12 -5z"/>
<path d="M1395 2106 l-40 -13 30 -8 c26 -7 27 -9 10 -16 -20 -7 -20 -8 0 -8
17 -1 17 -3 5 -11 -12 -8 -10 -10 11 -10 14 0 34 7 45 16 18 15 18 15 -4 10
-13 -2 -21 -2 -18 2 4 3 -4 12 -16 19 -15 8 -18 12 -7 13 8 0 20 -5 27 -12 6
-6 15 -8 19 -4 4 4 1 11 -6 16 -11 6 -10 9 5 13 18 4 18 5 -1 5 -11 0 -38 -5
-60 -12z"/>
<path d="M1541 2000 c-104 -11 -201 -61 -275 -141 -31 -33 -56 -65 -56 -70 0
-6 -4 -7 -10 -4 -12 7 -53 -75 -69 -137 -20 -84 18 -314 72 -426 29 -62 141
-160 190 -167 43 -7 137 -41 131 -48 -4 -4 32 -7 80 -7 56 0 85 4 81 10 -4 6
8 10 28 10 88 0 235 117 291 232 83 172 72 375 -29 533 -42 65 -116 137 -175
169 -44 24 -152 58 -175 55 -5 -1 -43 -5 -84 -9z m182 -455 c-1 -5 3 -16 9
-22 7 -9 7 -13 -1 -13 -6 0 -11 5 -11 11 0 5 -5 7 -10 4 -6 -4 -8 -11 -5 -16
4 -5 1 -9 -4 -9 -16 0 -13 16 5 31 15 12 14 14 -7 21 l-24 7 25 -2 c14 -1 24
-6 23 -12z m-40 -45 c9 -11 13 -20 7 -20 -5 0 -14 9 -20 20 -6 11 -9 20 -8 20
2 0 11 -9 21 -20z"/>
<path d="M2375 2150 c-3 -5 -1 -10 4 -10 6 0 11 5 11 10 0 6 -2 10 -4 10 -3 0
-8 -4 -11 -10z"/>
<path d="M820 2005 c0 -8 5 -15 10 -15 6 0 10 7 10 15 0 8 -4 15 -10 15 -5 0
-10 -7 -10 -15z"/>
<path d="M940 2000 c0 -19 3 -21 12 -12 9 9 9 15 0 24 -9 9 -12 7 -12 -12z"/>
<path d="M730 1030 c0 -5 5 -10 10 -10 6 0 10 5 10 10 0 6 -4 10 -10 10 -5 0
-10 -4 -10 -10z"/>
</g>
</svg>
